<svg xmlns="http://www.w3.org/2000/svg" viewBox="0 0 213.63 60"><defs><style>.cls-1{fill:#fff;}</style></defs><title>Recurso 2</title><g id="Capa_2" data-name="Capa 2"><g id="Layer_1" data-name="Layer 1"><path class="cls-1" d="M0,29.88A29.9,29.9,0,0,0,28.45,59.7V.07A29.88,29.88,0,0,0,0,29.88"/><path class="cls-1" d="M43.07,59.73H59.7V43.1A32.88,32.88,0,0,1,43.07,59.73"/><path class="cls-1" d="M59.7,16.66V0H43.07A32.88,32.88,0,0,1,59.7,16.66"/><path class="cls-1" d="M59.7,29.88A29.88,29.88,0,0,0,31.25.07V59.7A29.9,29.9,0,0,0,59.7,29.88"/><path class="cls-1" d="M93.74,29.88V49.31h3.81A24.64,24.64,0,0,0,97.55,0H74.32A32.7,32.7,0,0,1,93.74,29.88"/><path class="cls-1" d="M62.5.07V59.73H90.94V29.88A29.87,29.87,0,0,0,62.5.07"/><path class="cls-1" d="M140.38,27a8.51,8.51,0,0,0,.16.95,3.08,3.08,0,0,0,2.27,2.29,3,3,0,0,0,3.07-.85,3.52,3.52,0,0,0,.93-3.21,3.2,3.2,0,0,0-4.67-2.43A3.38,3.38,0,0,0,140.38,27m-1,0a4.25,4.25,0,0,1,2-3.87,4.19,4.19,0,0,1,4.37-.07,4.05,4.05,0,0,1,2.12,3.57,4.34,4.34,0,0,1-1.49,3.67A4.25,4.25,0,0,1,139.49,28a8,8,0,0,1-.13-1"/><path class="cls-1" d="M145.67,37.06h1v8.62a2.87,2.87,0,0,1-.33-.28c-1.69-1.92-3.36-3.84-5-5.76l-.34-.38-.09,0v6.14h-1V36.78c.17.15.29.23.39.34,1.19,1.34,2.36,2.7,3.55,4.05.51.58,1,1.16,1.52,1.73l.33.34Z"/><path class="cls-1" d="M168.63,45.44h-.9c0-.16,0-.3,0-.44,0-1.09,0-2.18,0-3.27a3.53,3.53,0,0,0-.19-1,1.31,1.31,0,0,0-2.17-.46,2.25,2.25,0,0,0-.6,1.36,10.23,10.23,0,0,0-.06,1.23c0,.85,0,1.7,0,2.58h-.93c0-.14,0-.27,0-.41,0-1,0-2,0-3a4.34,4.34,0,0,0-.18-1.25,1.29,1.29,0,0,0-2.22-.43,2.28,2.28,0,0,0-.56,1.42c0,.77,0,1.54-.05,2.31,0,.45,0,.91,0,1.39h-.91v-6.2l.33,0h.35c0,.32.08.61.13,1a2.19,2.19,0,0,1,2-1.15,2.08,2.08,0,0,1,1.9,1.28l.13-.22a2.15,2.15,0,0,1,2.55-1,1.89,1.89,0,0,1,1.38,1.51,5.11,5.11,0,0,1,.14,1.11c0,1.14,0,2.28,0,3.42,0,.08,0,.16,0,.27"/><path class="cls-1" d="M185.38,28.06a2.68,2.68,0,0,0-.45-1.63,2,2,0,0,0-3.47.22,2.83,2.83,0,0,0,0,2.61,1.91,1.91,0,0,0,1.78,1.15,1.94,1.94,0,0,0,1.79-1,2.53,2.53,0,0,0,.38-1.36m0-2.25V22.69h.94v8.38h-.74c0-.35-.07-.69-.12-1.1a3,3,0,0,1-1.14,1,2.83,2.83,0,0,1-3.87-1.51,3.76,3.76,0,0,1,.29-3.52,2.81,2.81,0,0,1,4.46-.34,1.9,1.9,0,0,0,.18.2"/><path class="cls-1" d="M140.85,55.59h2a2.17,2.17,0,0,0,.43-.08A1.5,1.5,0,0,0,144.44,54a1.45,1.45,0,0,0-1.09-1.57,11,11,0,0,0-2.5-.11Zm0,.89v3.31h-1V51.43a1.24,1.24,0,0,1,.16,0c1,0,2,0,3,0a2.91,2.91,0,0,1,.93.19,2.3,2.3,0,0,1,1.51,2.46,2.41,2.41,0,0,1-2.59,2.4c-.53,0-1.06,0-1.59,0h-.45"/><path class="cls-1" d="M155,56.13A1.84,1.84,0,0,0,153,54.24a2,2,0,0,0-2,2.07,28.87,28.87,0,0,1,4-.18m.7,1.91v1a2.93,2.93,0,0,1-2,1,4.24,4.24,0,0,1-1.42-.13A3,3,0,0,1,150,57a3.5,3.5,0,0,1,.77-2.53,3,3,0,0,1,4.51-.13,2.61,2.61,0,0,1,.66,1.75V57h-4.09a2.17,2.17,0,0,0-.36,0c-.35,0-.48.22-.43.58a1.54,1.54,0,0,0,.63,1,2.78,2.78,0,0,0,2.64.38,2.4,2.4,0,0,0,1.08-.65c.07-.08.15-.15.26-.26"/><path class="cls-1" d="M192.33,27.41a1.8,1.8,0,0,0-1-1.66,2,2,0,0,0-2.15.15,1.94,1.94,0,0,0-.84,1.66,32.55,32.55,0,0,1,4-.15m.68,2v.88a3,3,0,0,1-2.06,1,4.48,4.48,0,0,1-1.41-.13,3,3,0,0,1-2.2-2.9,3.32,3.32,0,0,1,1.23-2.92,2.87,2.87,0,0,1,4.63,1.5,8.14,8.14,0,0,1,.1,1.44h-4.07a2.61,2.61,0,0,0-.28,0c-.49,0-.67.26-.53.73a1.9,1.9,0,0,0,1.48,1.32,2.93,2.93,0,0,0,2.9-.76l.15-.13s0,0,.06,0"/><path class="cls-1" d="M190.79,56.67c-.38.09-.71.18-1,.23s-.59,0-.87.05a4.13,4.13,0,0,0-.92.23.86.86,0,0,0-.57.83,1,1,0,0,0,.53.92,1.94,1.94,0,0,0,2.86-1.39,6.37,6.37,0,0,0,0-.87m-3.93-1.36v-1a3.3,3.3,0,0,1,1.82-.91,3.46,3.46,0,0,1,1.8.15,1.78,1.78,0,0,1,1.25,1.68c0,1.45,0,2.9,0,4.35a1.55,1.55,0,0,1,0,.17H191l-.13-.95-.25.29a2.67,2.67,0,0,1-3.45.41,1.76,1.76,0,0,1-.72-1.72,1.59,1.59,0,0,1,1-1.39,4.17,4.17,0,0,1,1.6-.3l1.07-.06c.68-.08.79-.77.46-1.25a1.24,1.24,0,0,0-.86-.52,2.87,2.87,0,0,0-2.33.55c-.17.12-.33.27-.55.45"/><path class="cls-1" d="M190.33,42.21a2.49,2.49,0,0,1-1.36.37,5.81,5.81,0,0,0-.59,0,3.66,3.66,0,0,0-.81.18.92.92,0,0,0-.63.92,1,1,0,0,0,.63.94,1.93,1.93,0,0,0,2.64-1,3.31,3.31,0,0,0,.12-1.38m-3.93-1.32V40a3.45,3.45,0,0,1,1.8-.89,3.5,3.5,0,0,1,1.84.15,1.77,1.77,0,0,1,1.22,1.66c0,1.46,0,2.93,0,4.39,0,0,0,.07,0,.14h-.72c0-.3-.07-.6-.11-1a2.13,2.13,0,0,0-.19.22,2.65,2.65,0,0,1-3.25.65,1.73,1.73,0,0,1-1-1.76,1.54,1.54,0,0,1,1.12-1.53,9.77,9.77,0,0,1,1.56-.27c.35,0,.72,0,1.06-.08a.68.68,0,0,0,.56-1,1,1,0,0,0-.56-.65,2.5,2.5,0,0,0-2.26.1,11.16,11.16,0,0,0-1.06.69"/><path class="cls-1" d="M174,42.32c-.44.09-.86.18-1.29.24-.21,0-.42,0-.63,0a4.42,4.42,0,0,0-.89.2.89.89,0,0,0-.59.87,1,1,0,0,0,.57.93,1.93,1.93,0,0,0,2.68-.93,2.85,2.85,0,0,0,.15-1.34m.08,2.13-.19.23a2.65,2.65,0,0,1-3.31.63,1.75,1.75,0,0,1-.94-1.75,1.64,1.64,0,0,1,1.06-1.5,4.35,4.35,0,0,1,1.6-.28,6.43,6.43,0,0,0,1.07-.08.68.68,0,0,0,.53-1,1.3,1.3,0,0,0-.5-.54,2.36,2.36,0,0,0-2.22.05,10.47,10.47,0,0,0-1.11.72V40a3.3,3.3,0,0,1,1.62-.85,3.34,3.34,0,0,1,2.07.14,1.68,1.68,0,0,1,1.16,1.58c0,1.51,0,3,0,4.57h-.75l-.1-1"/><path class="cls-1" d="M175.26,27.94l-.1-.07a2.57,2.57,0,0,1-1.4.34c-.18,0-.35,0-.52,0a3.43,3.43,0,0,0-.84.2.89.89,0,0,0-.61.85,1,1,0,0,0,.59,1,1.9,1.9,0,0,0,2.67-1,7.16,7.16,0,0,0,.21-1.31m.83,3.13h-.71c0-.31-.07-.61-.11-1l-.27.32a2.67,2.67,0,0,1-3.38.44,1.77,1.77,0,0,1-.78-1.76,1.6,1.6,0,0,1,1-1.39,4.13,4.13,0,0,1,1.63-.29,5.81,5.81,0,0,0,1-.08.7.7,0,0,0,.53-1.1,1.24,1.24,0,0,0-.5-.49,2.36,2.36,0,0,0-2.19.06,9.82,9.82,0,0,0-1.11.71v-.9a3.55,3.55,0,0,1,3.74-.69,1.67,1.67,0,0,1,1.1,1.57c0,1.47,0,2.95,0,4.43,0,0,0,.07,0,.14"/><path class="cls-1" d="M175.86,54.24A2.07,2.07,0,0,0,174,55.36,2.82,2.82,0,0,0,174,58a2.08,2.08,0,0,0,3.75-.13,2.82,2.82,0,0,0,0-2.36,2,2,0,0,0-1.88-1.28m0-.83a3.29,3.29,0,0,1-.12,6.58,3.15,3.15,0,0,1-3.07-3.34,3.11,3.11,0,0,1,3.19-3.24"/><path class="cls-1" d="M201.81,42.32a3.48,3.48,0,0,0,.39,1.39A2,2,0,0,0,204,44.77a1.93,1.93,0,0,0,1.79-1.06A2.87,2.87,0,0,0,206,41.2a2.08,2.08,0,0,0-3.87,0,10,10,0,0,0-.27,1.11m2.18,3.3a3.29,3.29,0,1,1,3.17-3.26A3.12,3.12,0,0,1,204,45.62"/><path class="cls-1" d="M148.89,42.27a2.82,2.82,0,0,0,.33,1.41A2,2,0,0,0,151,44.77a1.9,1.9,0,0,0,1.82-1.07,2.75,2.75,0,0,0-.07-2.85,2,2,0,0,0-3.16-.39,2.56,2.56,0,0,0-.74,1.81M151.05,39a3.29,3.29,0,1,1-3.15,3.28A3.12,3.12,0,0,1,151.05,39"/><path class="cls-1" d="M181,59.8h-.92V53.6h.7l.13,1,.23-.3a2.42,2.42,0,0,1,2.73-.79,2.17,2.17,0,0,1,1.56,2.14c.07,1.37,0,2.74,0,4.13h-.94v-.41c0-1.12,0-2.23,0-3.35a2.61,2.61,0,0,0-.08-.55,1.45,1.45,0,0,0-1.2-1.22,1.64,1.64,0,0,0-1.72.67,2.91,2.91,0,0,0-.48,1.74c0,.89,0,1.78,0,2.67Z"/><path class="cls-1" d="M165.4,31.08h-.92V24.86h.69c0,.32.08.64.12,1l.22-.27a2.36,2.36,0,0,1,2.56-.86,2.18,2.18,0,0,1,1.72,1.93,2.16,2.16,0,0,1,.06.51v3.67a.88.88,0,0,1,0,.21h-.92V30.6l0-3.35a2.43,2.43,0,0,0-.1-.55,1.43,1.43,0,0,0-1.14-1.15,1.62,1.62,0,0,0-1.66.53,2.66,2.66,0,0,0-.57,1.78c0,.92,0,1.83,0,2.75Z"/><path class="cls-1" d="M213.62,45.44h-.91c0-.14,0-.28,0-.42l0-3.34a2.72,2.72,0,0,0-.09-.56,1.44,1.44,0,0,0-1.2-1.22,1.63,1.63,0,0,0-1.69.63,2.91,2.91,0,0,0-.5,1.78c0,.89,0,1.78,0,2.67v.46h-.92V39.23h.7c0,.32.08.64.12,1l.23-.29a2.39,2.39,0,0,1,2.61-.84,2.22,2.22,0,0,1,1.69,2.16c0,1.37,0,2.74,0,4.16"/><path class="cls-1" d="M169.24,54v.92l-.4-.25a2.53,2.53,0,0,0-2-.37,1.3,1.3,0,0,0-.43.2.72.72,0,0,0,0,1.23,4.25,4.25,0,0,0,.86.41c.45.2.92.34,1.36.56a1.56,1.56,0,0,1,1,1.71,1.74,1.74,0,0,1-1.41,1.49,3.67,3.67,0,0,1-2.9-.52,1.6,1.6,0,0,1-.23-.16v-.94l.42.29a3,3,0,0,0,2.14.59,1.91,1.91,0,0,0,.7-.26.75.75,0,0,0,.09-1.23,3,3,0,0,0-.86-.47c-.47-.21-1-.36-1.44-.58a1.45,1.45,0,0,1-.94-1.48,1.62,1.62,0,0,1,1-1.5,3.08,3.08,0,0,1,3.08.36"/><path class="cls-1" d="M180.41,45.42l3.29-5.36h-2.94v-.83h4.57c-1.09,1.79-2.16,3.54-3.27,5.34h3.19v.85Z"/><path class="cls-1" d="M197.61,40.73c-1.49-1.25-3.13-.95-3.85-.1a2.79,2.79,0,0,0,.06,3.46,2.24,2.24,0,0,0,2,.67,2.9,2.9,0,0,0,1.89-1v1a3.38,3.38,0,0,1-4.48,0,3.57,3.57,0,0,1-.2-4.72,3.46,3.46,0,0,1,4.62-.29Z"/><path class="cls-1" d="M160.38,25.43v.94l-.34-.25a2.91,2.91,0,0,0-2.3-.54,2,2,0,0,0-1.59,1.3,2.84,2.84,0,0,0-.05,2,2.25,2.25,0,0,0,3.09,1.32,8,8,0,0,0,1.23-.71v.9a3.43,3.43,0,0,1-4.45,0,3.59,3.59,0,0,1-.26-4.72,3.44,3.44,0,0,1,4.67-.32"/><path class="cls-1" d="M149.34,31.07V25.65h-1v-.79l1,0c0-.23,0-.44,0-.64A1.74,1.74,0,0,1,152,22.75v.7c-1.34-.27-1.91.19-1.65,1.38h1.76v.8H150.3v5.44Z"/><path class="cls-1" d="M159.39,59.86l-.28,0c-1-2.08-1.94-4.15-2.92-6.28h1.07c.65,1.5,1.31,3,2,4.63.69-1.59,1.36-3.1,2-4.64h1.06c-1,2.12-2,4.19-3,6.27"/><path class="cls-1" d="M147.46,59.8h-.93V53.6h.71c0,.33.08.66.13,1,.95-1.25,1.64-1.5,2.72-1v.83l-.37-.11a1.51,1.51,0,0,0-1.89.76,3.17,3.17,0,0,0-.37,1.53V59.8Z"/><path class="cls-1" d="M156.12,40.31c.84-1.26,1.67-1.56,2.73-1v.81l-.34-.09a1.51,1.51,0,0,0-1.94.79,3.11,3.11,0,0,0-.35,1.46v3.17h-.91v-6.2H156c0,.34.08.68.12,1.08"/><rect class="cls-1" x="193.04" y="51.42" width="0.9" height="8.39"/><rect class="cls-1" x="176.22" y="37.06" width="0.91" height="8.37"/><rect class="cls-1" x="178.6" y="39.22" width="0.89" height="6.21"/><rect class="cls-1" x="198.9" y="39.22" width="0.9" height="6.22"/><rect class="cls-1" x="170.72" y="53.58" width="0.9" height="6.22"/><rect class="cls-1" x="153" y="24.86" width="0.89" height="6.22"/><path class="cls-1" d="M163.93,59.81H163V53.56h.52l.37,0Z"/><polygon class="cls-1" points="162.55 31.08 161.66 31.08 161.66 24.84 162.1 24.84 162.55 24.84 162.55 31.08"/><path class="cls-1" d="M203,38.31v-.82l2.67-1.42v1L203,38.31"/><path class="cls-1" d="M171.15,52.06a.68.68,0,0,1-.7-.7.7.7,0,0,1,1.4,0,.68.68,0,0,1-.7.7"/><path class="cls-1" d="M199.32,36.34a.68.68,0,1,1,0,1.35.67.67,0,0,1-.72-.67.69.69,0,0,1,.69-.68"/><path class="cls-1" d="M153.43,22a.66.66,0,0,1,.7.66.71.71,0,1,1-.7-.66"/><path class="cls-1" d="M164.17,51.37a.68.68,0,0,1-.71.69.67.67,0,0,1-.69-.67.7.7,0,0,1,1.4,0"/><path class="cls-1" d="M162.79,22.65a.7.7,0,1,1-.69-.67.66.66,0,0,1,.69.67"/><path class="cls-1" d="M179,36.34a.68.68,0,0,1,.7.66.7.7,0,1,1-.7-.66"/><path class="cls-1" d="M149.84,6.88c0-.39-.07-.78-.14-1.17a4.18,4.18,0,0,0-4.24-3.49,4.18,4.18,0,0,0-4.17,3,5.71,5.71,0,0,0-.07,3.12,4.21,4.21,0,0,0,2.32,2.9,4.42,4.42,0,0,0,2.61.33,4.07,4.07,0,0,0,2.79-1.73,5.26,5.26,0,0,0,.9-3m2.5-.11A7,7,0,0,1,150.25,12a6.43,6.43,0,0,1-3.76,1.8,7.17,7.17,0,0,1-4.25-.67,6.52,6.52,0,0,1-3.38-4A7.08,7.08,0,0,1,139,4.4,6.38,6.38,0,0,1,143.82.19a7,7,0,0,1,5.44.92,6.5,6.5,0,0,1,3,4.75c.05.35.06.71.08.91"/><path class="cls-1" d="M162.78,8.47V.32h2.44v13.5h-.39L156.6,5.36v8.23h-2.43V.06h.41l8.2,8.41"/><path class="cls-1" d="M170.21,6.71c.82,0,1.62,0,2.41,0a2.14,2.14,0,0,0,1.7-.76,2.19,2.19,0,0,0,.41-1.68,1.84,1.84,0,0,0-1.67-1.74c-.54-.06-1.09-.06-1.63-.08h-1.22Zm0,2.14v4.74h-2.46V.32H168c1.53,0,3.06,0,4.58,0a5.62,5.62,0,0,1,2.76.62,3.64,3.64,0,0,1,1.9,2.69A5,5,0,0,1,177,6.29a3.74,3.74,0,0,1-2.75,2.39,6.37,6.37,0,0,1-1.63.18c-.7,0-1.4,0-2.1,0Z"/></g></g></svg>